HIERARCHY
ROOT Pelvis
{
	OFFSET 0.000000 0.941512 0.000000
	CHANNELS 6 Xposition Yposition Zposition Zrotation Yrotation Xrotation 
	JOINT Pelvis_L_Hip
	{
		OFFSET 0.000000 0.000000 0.000000
		CHANNELS 3 Zrotation Yrotation Xrotation
		JOINT L_Hip
		{
			OFFSET 0.062321 -0.080322 -0.016990
			CHANNELS 3 Zrotation Yrotation Xrotation
			JOINT L_Knee
			{
				OFFSET 0.093051 -0.381305 -0.029784
				CHANNELS 3 Zrotation Yrotation Xrotation
				JOINT L_Ankle
				{
					OFFSET -0.010371 -0.431000 -0.033614
					CHANNELS 3 Zrotation Yrotation Xrotation
					End Site #name: L_Foot
					{
						OFFSET 0.069299 -0.038670 0.119418
					}
				}
			}
		}
	}
	JOINT Pelvis_R_Hip
	{
		OFFSET 0.000000 0.000000 0.000000
		CHANNELS 3 Zrotation Yrotation Xrotation
		JOINT R_Hip
		{
			OFFSET -0.055334 -0.094904 -0.002373
			CHANNELS 3 Zrotation Yrotation Xrotation
			JOINT R_Knee
			{
				OFFSET -0.064207 -0.384370 -0.019592
				CHANNELS 3 Zrotation Yrotation Xrotation
				JOINT R_Ankle
				{
					OFFSET 0.025418 -0.419734 -0.065953
					CHANNELS 3 Zrotation Yrotation Xrotation
					End Site #name: R_Foot
					{
						OFFSET -0.057233 -0.039888 0.132134
					}
				}
			}
		}
	}
	JOINT Pelvis_Spine1
	{
		OFFSET 0.000000 0.000000 0.000000
		CHANNELS 3 Zrotation Yrotation Xrotation
		JOINT Spine1
		{
			OFFSET -0.005562 0.124093 -0.043360
			CHANNELS 3 Zrotation Yrotation Xrotation
			JOINT Spine2
			{
				OFFSET 0.012244 0.139499 0.029894
				CHANNELS 3 Zrotation Yrotation Xrotation
				JOINT Spine3
				{
					OFFSET -0.002556 0.056561 0.009225
					CHANNELS 3 Zrotation Yrotation Xrotation
					JOINT Spine3_Neck
					{
						OFFSET 0.000000 0.000000 0.000000
						CHANNELS 3 Zrotation Yrotation Xrotation
						JOINT Neck
						{
							OFFSET -0.005205 0.217920 -0.024551
							CHANNELS 3 Zrotation Yrotation Xrotation
							End Site #name: Head
							{
								OFFSET 0.002365 0.091850 0.046637
							}
						}
					}
					JOINT Spine3_L_Collar
					{
						OFFSET 0.000000 0.000000 0.000000
						CHANNELS 3 Zrotation Yrotation Xrotation
						JOINT L_Collar
						{
							OFFSET 0.072225 0.116603 -0.009480
							CHANNELS 3 Zrotation Yrotation Xrotation
							JOINT L_Shoulder
							{
								OFFSET 0.115937 -0.058643 -0.021018
								CHANNELS 3 Zrotation Yrotation Xrotation
								JOINT L_Elbow
								{
									OFFSET 0.021994 -0.254722 -0.024492
									CHANNELS 3 Zrotation Yrotation Xrotation
									End Site #name: L_Wrist
									{
										OFFSET 0.048810 -0.240214 0.103329
									}
								}
							}
						}
					}
					JOINT Spine3_R_Collar
					{
						OFFSET 0.000000 0.000000 0.000000
						CHANNELS 3 Zrotation Yrotation Xrotation
						JOINT R_Collar
						{
							OFFSET -0.073372 0.120704 -0.024611
							CHANNELS 3 Zrotation Yrotation Xrotation
							JOINT R_Shoulder
							{
								OFFSET -0.108089 -0.054969 -0.020504
								CHANNELS 3 Zrotation Yrotation Xrotation
								JOINT R_Elbow
								{
									OFFSET -0.033684 -0.260739 0.009889
									CHANNELS 3 Zrotation Yrotation Xrotation
									End Site #name: R_Wrist
									{
										OFFSET -0.067980 -0.232763 0.118463
									}
								}
							}
						}
					}
				}
			}
		}
	}
}
MOTION
Frames: 10
Frame Time: 0.041667
0.826900 0.919605 2.072939 4.422668 1.971297 2.765463 0.000000 0.000000 0.000000 0.832661 -6.242212 -25.914250 0.670356 -0.583409 16.483905 -5.732101 -14.705342 1.875445 0.000000 0.000000 0.000000 7.745467 -1.981982 6.464935 -17.406336 8.284065 24.465147 31.137519 62.293969 17.115349 0.000000 0.000000 0.000000 -1.306245 0.653368 -4.838383 -7.821857 5.888090 37.870060 4.218600 6.074135 -31.439854 0.000000 0.000000 0.000000 8.698437 -10.130856 34.850520 0.000000 0.000000 0.000000 18.216512 2.959032 6.272426 -7.393103 1.523541 7.298924 -5.169615 -0.576683 6.365950 0.000000 0.000000 0.000000 -19.575414 1.597122 2.142486 11.192027 -2.209019 13.337498 8.220545 11.854809 -17.036455 
0.844221 0.914756 2.118336 4.905677 -1.769060 1.911207 0.000000 0.000000 0.000000 -1.719057 -5.887421 -23.443243 0.851499 -0.663933 20.891027 -2.261480 -12.177593 -2.272728 0.000000 0.000000 0.000000 5.800831 -0.377083 0.253512 -11.497537 9.802519 41.638735 27.664826 45.491873 20.078673 0.000000 0.000000 0.000000 -3.480769 0.890910 -2.487617 -5.838007 5.003587 35.987827 3.034314 3.680934 -31.371701 0.000000 0.000000 0.000000 11.809816 -11.864388 33.872480 0.000000 0.000000 0.000000 18.659452 1.170309 4.582425 -5.737308 1.427193 7.934218 -5.212155 -0.575299 6.428763 0.000000 0.000000 0.000000 -18.099137 0.164773 3.350677 10.488384 -2.040241 12.748168 7.197782 10.393193 -15.572420 
0.853394 0.914436 2.152511 4.731009 -5.396304 1.098844 0.000000 0.000000 0.000000 -2.524284 -5.293897 -21.030614 0.503947 -0.470116 23.919539 0.714988 -9.063228 -5.856727 0.000000 0.000000 0.000000 5.490882 1.709554 -9.334487 -2.787735 8.222236 58.549916 14.769060 33.289354 8.249190 0.000000 0.000000 0.000000 -4.070668 0.870531 0.715013 -3.734505 4.119340 34.851296 1.082991 0.592888 -31.490520 0.000000 0.000000 0.000000 14.023982 -12.534375 32.392359 0.000000 0.000000 0.000000 19.689959 -3.000300 1.166470 -3.940289 1.242073 8.222170 -5.139643 -0.433980 6.869775 0.000000 0.000000 0.000000 -17.096156 -0.348522 3.945325 11.342822 -1.858204 11.956858 5.189059 8.804268 -15.319586 
0.858168 0.919879 2.182323 3.476811 -9.282639 0.538320 0.000000 0.000000 0.000000 -1.742110 -4.088554 -16.685276 -0.064195 -0.124479 22.753147 2.388974 -6.218840 -7.743571 0.000000 0.000000 0.000000 6.114089 4.070545 -19.081352 6.417516 2.921845 67.118858 3.643577 26.643287 -6.022512 0.000000 0.000000 0.000000 -2.585966 0.454303 2.564700 -1.382921 3.330418 35.311476 -1.343176 -2.633397 -31.787783 0.000000 0.000000 0.000000 15.122955 -12.514183 32.263323 0.000000 0.000000 0.000000 21.067908 -7.118567 -2.303817 -1.658981 0.901811 7.752410 -4.700715 -0.173817 7.253220 0.000000 0.000000 0.000000 -16.784574 -0.712830 4.574085 11.912388 -1.513832 10.598509 4.887103 8.464147 -15.017155 
0.859991 0.928659 2.212248 2.454785 -13.338890 -0.138916 0.000000 0.000000 0.000000 -1.460487 -2.690629 -11.001725 -0.088151 -0.005016 19.660736 3.149546 -3.750085 -8.351551 0.000000 0.000000 0.000000 5.030224 5.959621 -26.530816 14.458294 -2.908482 64.627233 -2.574283 15.207260 -12.670876 0.000000 0.000000 0.000000 -0.930096 -0.017383 4.144822 0.446442 2.724894 34.953691 -3.337350 -5.400554 -31.586394 0.000000 0.000000 0.000000 16.111758 -12.503740 32.589639 0.000000 0.000000 0.000000 22.406516 -9.410325 -4.521408 1.099740 0.475001 6.750077 -3.959664 -0.132472 6.299313 0.000000 0.000000 0.000000 -16.652382 -1.738091 5.722908 11.896668 -1.169488 9.248916 5.361721 8.724785 -14.801475 
0.858698 0.934300 2.242366 1.615224 -17.169654 -0.469727 0.000000 0.000000 0.000000 -1.525010 -1.516115 -6.195035 0.267501 -0.026484 17.469593 3.650752 -1.536897 -8.634524 0.000000 0.000000 0.000000 2.968516 7.103777 -31.536958 19.035561 -5.189341 54.215578 -5.027951 5.884831 -13.652895 0.000000 0.000000 0.000000 0.890814 -0.524758 5.256231 1.710107 2.291996 33.839787 -4.799311 -7.564798 -30.902828 0.000000 0.000000 0.000000 17.219377 -12.492309 32.127777 0.000000 0.000000 0.000000 23.955325 -10.325087 -5.735135 3.170694 0.141464 5.355226 -3.204141 -0.349276 4.203088 0.000000 0.000000 0.000000 -16.836350 -3.022692 7.163235 11.757260 -0.905323 8.159885 5.528181 8.723156 -14.516787 
0.854168 0.934963 2.273205 1.002262 -20.360827 -0.746468 0.000000 0.000000 0.000000 -1.803321 -0.441541 -2.031055 0.727133 -0.093477 16.054760 4.038469 0.024137 -9.002345 0.000000 0.000000 0.000000 1.096771 7.373568 -33.333063 19.079284 -4.231089 39.164822 -5.876857 -1.494711 -11.454993 0.000000 0.000000 0.000000 2.824104 -1.050755 5.979625 2.675554 1.975564 32.921599 -5.833662 -9.259889 -30.323691 0.000000 0.000000 0.000000 18.385756 -12.535833 31.078801 0.000000 0.000000 0.000000 25.423748 -11.103402 -6.861687 4.668963 -0.092583 3.866836 -2.801049 -0.706020 2.047621 0.000000 0.000000 0.000000 -16.914539 -4.261196 8.496980 11.189857 -0.732636 7.378451 5.085294 8.124690 -13.858458 
0.845517 0.932139 2.305899 0.916392 -22.631953 -1.423095 0.000000 0.000000 0.000000 -2.556330 0.830203 2.356311 1.506307 -0.265936 14.554378 4.243122 0.806791 -9.314471 0.000000 0.000000 0.000000 0.159087 6.843582 -31.706360 14.822767 -2.227560 22.796391 -7.084994 -12.486778 -6.816513 0.000000 0.000000 0.000000 4.472324 -1.476360 6.306237 3.424110 1.731095 32.319392 -6.505754 -10.689307 -30.003524 0.000000 0.000000 0.000000 19.711287 -12.876911 30.373897 0.000000 0.000000 0.000000 26.627525 -12.302830 -8.315891 5.617293 -0.231613 2.639224 -2.628293 -1.093701 0.157935 0.000000 0.000000 0.000000 -17.004047 -5.298973 9.629929 10.735307 -0.682567 7.111426 3.994798 6.902573 -12.757567 
0.831570 0.926483 2.339269 1.582319 -24.124179 -1.986271 0.000000 0.000000 0.000000 -3.610474 1.892003 5.455988 2.317560 -0.423798 14.665802 4.261512 0.896459 -9.487446 0.000000 0.000000 0.000000 -0.646059 6.239338 -29.846994 7.967563 -0.703497 11.275308 -9.891714 -26.452121 -0.053550 0.000000 0.000000 0.000000 5.645653 -1.703269 5.673142 3.857024 1.575417 31.646552 -6.875441 -11.819049 -29.714942 0.000000 0.000000 0.000000 21.025903 -13.319615 29.885046 0.000000 0.000000 0.000000 27.616117 -13.505175 -9.753908 5.512488 -0.277353 1.295897 -2.273574 -1.312931 -1.366873 0.000000 0.000000 0.000000 -17.239584 -6.368869 10.817185 10.664589 -0.685106 7.094602 2.620315 5.359678 -11.212783 
0.810124 0.919185 2.373558 2.344528 -25.048209 -2.165292 0.000000 0.000000 0.000000 -3.981012 2.456587 7.010369 2.737868 -0.455779 17.128086 4.118664 0.341620 -9.536557 0.000000 0.000000 0.000000 -2.186457 5.863257 -29.434734 4.196987 -0.135420 7.802889 -13.792139 -37.208905 6.832984 0.000000 0.000000 0.000000 6.870798 -1.865698 4.294489 4.181316 1.426320 30.904518 -7.239369 -12.646986 -29.325015 0.000000 0.000000 0.000000 22.145152 -13.578826 28.638522 0.000000 0.000000 0.000000 28.129224 -14.105088 -10.591138 4.328528 -0.272764 -0.231659 -1.751509 -1.542713 -3.278357 0.000000 0.000000 0.000000 -17.342419 -7.606381 12.020910 10.719737 -0.693352 7.104700 1.396309 3.830960 -9.224938 
